<?xml version="1.0" encoding="utf-8"?>
<!-- Generator: Adobe Illustrator 25.4.1, SVG Export Plug-In . SVG Version: 6.00 Build 0)  -->
<svg version="1.1" id="Layer_1" xmlns="http://www.w3.org/2000/svg" xmlns:xlink="http://www.w3.org/1999/xlink" x="0px" y="0px"
	 viewBox="0 0 300 100" style="enable-background:new 0 0 300 100;" xml:space="preserve">
<style type="text/css">
	.st0{fill:#FFFFFF;fill-opacity:0.8;}
	.st1{fill:#23BDEE;}
	.st2{fill:#545567;}
</style>
<g>
	<path class="st0" d="M20,0h260c11,0,20,9,20,20v60c0,11-9,20-20,20H20C9,100,0,91,0,80V20C0,9,9,0,20,0z"/>
</g>
<path class="st1" d="M36,25h34c4.4,0,8,3.6,8,8v34c0,4.4-3.6,8-8,8H36c-4.4,0-8-3.6-8-8V33C28,28.6,31.6,25,36,25z"/>
<g>
	<path class="st0" d="M54.2,66.5c-5.6,0-11.2,0-16.8,0c-1.7,0-3.2-1.1-3.8-2.7c-0.5-1.6,0-3.4,1.4-4.4c0.2-0.1,0.2-0.3,0.2-0.5
		c0-7.5,0-14.9,0-22.4c0-1.9,1.4-3.4,3.3-3.3c10.5,0,21,0,31.5,0c1.7,0,2.9,1,3.2,2.6c0,0.2,0,0.5,0,0.7c0,7.4,0,14.8,0,22.3
		c0,0.3,0.1,0.5,0.3,0.7c1.3,1,1.8,2.8,1.2,4.4c-0.6,1.6-2,2.6-3.7,2.6C65.4,66.5,59.8,66.5,54.2,66.5
		C54.2,66.5,54.2,66.5,54.2,66.5z M71.8,58.6c0-0.1,0-0.2,0-0.4c0-7.3,0-14.5,0-21.8c0-1.1-0.6-1.8-1.8-1.8c-10.5,0-21,0-31.5,0
		c-1.1,0-1.8,0.7-1.8,1.8c0,7.3,0,14.5,0,21.8c0,0.1,0,0.2,0,0.3C48.4,58.6,60.1,58.6,71.8,58.6z M63.5,60.1c0,0.3,0,0.5,0,0.8
		c0,1.4-1,2.4-2.4,2.4c-4.6,0-9.1,0-13.7,0c-1.4,0-2.4-1-2.4-2.4c0-0.3,0-0.5,0-0.8c-0.1,0-0.1,0-0.2,0c-2.5,0-4.9,0-7.4,0
		c-1.4,0-2.5,1.1-2.5,2.5c0,1.4,1.1,2.5,2.5,2.5c0.8,0,1.7,0,2.5,0c10.3,0,20.7,0,31,0c1.4,0,2.5-1.1,2.5-2.5c0-1.4-1.1-2.5-2.5-2.5
		c-2.4,0-4.9,0-7.3,0C63.7,60.1,63.6,60.1,63.5,60.1z M46.4,60.1c0,0.2,0,0.4,0,0.7c0,0.8,0.3,1.1,1.1,1.1c4.5,0,9,0,13.5,0
		c0.1,0,0.2,0,0.3,0c0.4,0,0.6-0.2,0.7-0.6c0.1-0.4,0-0.8,0-1.2C56.8,60.1,51.7,60.1,46.4,60.1z"/>
	<path class="st0" d="M54.3,36.7c5,0,9.9,0,14.9,0c0.7,0,1,0.2,1,1c0,6.1,0,12.3,0,18.4c0,0.8-0.2,1-1,1c-9.9,0-19.8,0-29.7,0
		c-0.1,0-0.3,0-0.4,0c-0.4,0-0.6-0.3-0.6-0.6c0-0.1,0-0.2,0-0.4c0-6.1,0-12.3,0-18.4c0-0.8,0.2-1,1-1C44.3,36.7,49.3,36.7,54.3,36.7
		z M39.9,55.6c6.4,0,12.8,0,19.1,0c0-0.1,0-0.2,0-0.3c0.1-0.9,0.4-1.7,1-2.4c0.3-0.4,0.8-0.4,1.1-0.1c0.3,0.3,0.2,0.7,0,1
		c-0.4,0.5-0.6,1-0.7,1.6c0.3,0,0.5,0,0.8,0c0.1-1,0.3-1.2,0.7-1.2c0.2,0,0.4,0.1,0.5,0.2c0.4,0.3,0.2,0.7,0.3,1.1
		c0.4,0,0.7,0,1.2,0c0-0.2,0-0.3,0-0.5c0-0.4,0.3-0.7,0.7-0.7c0.4,0,0.7,0.3,0.7,0.8c0,0.2,0,0.3,0,0.5c0.3,0,0.6,0,0.8,0
		c-0.1-0.6-0.3-1.2-0.7-1.6c-0.3-0.4-0.3-0.8,0-1.1c0.3-0.3,0.8-0.2,1.1,0.1c0.5,0.6,0.8,1.2,1,2c0,0.2,0.1,0.5,0.1,0.7
		c0.3,0,0.5,0,0.8,0c0-5.8,0-11.6,0-17.4c-9.6,0-19.2,0-28.8,0C39.9,44,39.9,49.8,39.9,55.6z"/>
	<path class="st0" d="M49,54c-2.2,0-4.4,0-6.5,0c-0.7,0-0.9-0.3-0.9-0.9c-0.1-1.8,0.3-3.5,1.3-4.9c0.3-0.5,0.8-0.9,1.2-1.3
		c0.6-0.6,1.4-0.6,2.1-0.1c1.5,1.1,3,1.3,4.7,0.5c0.3-0.1,0.6-0.3,0.9-0.6c0.7-0.5,1.5-0.5,2.1,0.1c1.6,1.5,2.5,3.3,2.5,5.6
		c0,0.3,0,0.5,0,0.8c0,0.6-0.3,0.9-0.9,0.9C53.4,54,51.2,54,49,54z M54.9,52.5c0-0.1,0-0.1,0-0.2c0-0.1,0-0.1,0-0.2
		c-0.1-1.6-0.7-3-1.9-4.2c-0.2-0.2-0.3-0.2-0.5,0c-2,1.4-4.1,1.6-6.3,0.5c-0.4-0.2-0.8-0.5-1.2-0.7C43.7,49,43,50.6,43,52.5
		c1,0,2,0,3.1,0c0-0.1,0-0.2,0-0.3c0-0.4,0-0.8,0-1.3c0-0.5,0.3-0.8,0.7-0.8c0.4,0,0.7,0.3,0.7,0.7c0,0.2,0,0.3,0,0.5
		c0,0.4,0,0.7,0,1.1c0.9,0,1.8,0,2.7,0c0.1,0,0.2-0.2,0.2-0.2c0-0.5,0-0.9,0-1.4c0-0.5,0.5-0.8,1-0.6c0.3,0.1,0.5,0.4,0.5,0.8
		c0,0.5,0,1,0,1.5c0.1,0,0.2,0,0.3,0C53.1,52.5,54,52.5,54.9,52.5z"/>
	<path class="st0" d="M52.8,43.2c0,2.1-1.8,3.8-3.9,3.8c-2.1,0-3.8-1.8-3.8-3.9c0-2.2,1.8-3.9,3.9-3.8C51.1,39.3,52.8,41,52.8,43.2z
		 M51.3,43.1c0-1.3-1.1-2.4-2.4-2.4c-1.3,0-2.3,1.1-2.3,2.4c0,1.3,1.1,2.4,2.4,2.4C50.3,45.5,51.3,44.4,51.3,43.1z"/>
	<path class="st0" d="M60.5,46c0.3,0,0.6,0,0.8,0c0-0.6-0.1-1.2,0.8-1.2c0.5,0,0.6,0.3,0.7,1.2c0.4,0,0.7,0,1.1,0c0-0.2,0-0.3,0-0.5
		c0-0.4,0.3-0.7,0.7-0.7c0.4,0,0.7,0.3,0.7,0.7c0,0.2,0,0.3,0,0.5c0.3,0,0.5,0,0.8,0c0-0.6-0.3-1.1-0.7-1.6
		c-0.1-0.1-0.2-0.3-0.2-0.5c-0.1-0.3,0.1-0.6,0.4-0.8c0.3-0.2,0.7-0.1,0.9,0.2c0.6,0.7,1,1.5,1.1,2.4c0,0.3,0,0.6,0,0.9
		c0,0.6-0.3,0.8-0.9,0.8c-1.8,0-3.5,0-5.3,0c-0.6,0-1.2,0-1.8,0c-0.4,0-0.7-0.3-0.8-0.7c-0.1-1.2,0.2-2.4,1-3.3
		c0.3-0.4,0.8-0.5,1.1-0.2c0.3,0.3,0.3,0.7,0,1.1C60.8,44.8,60.6,45.3,60.5,46z"/>
	<path class="st0" d="M63.4,43.7c-1.3,0-2.4-1.1-2.4-2.4c0-1.3,1.1-2.4,2.4-2.4c1.3,0,2.4,1.1,2.4,2.4
		C65.8,42.6,64.7,43.7,63.4,43.7z M64.4,41.2c0-0.5-0.5-1-1-1c-0.5,0-0.9,0.4-0.9,1c0,0.5,0.4,1,1,1C63.9,42.2,64.4,41.7,64.4,41.2z
		"/>
	<path class="st0" d="M63.4,53.2c-1.3,0-2.4-1.1-2.4-2.4c0-1.3,1.1-2.4,2.4-2.4c1.3,0,2.4,1.1,2.4,2.5
		C65.8,52.1,64.7,53.2,63.4,53.2z M63.4,49.8c-0.5,0-1,0.4-1,1c0,0.5,0.4,0.9,1,0.9c0.5,0,1-0.4,1-1C64.4,50.2,63.9,49.8,63.4,49.8z
		"/>
</g>
<g>
	<path class="st2" d="M86.2,63.6V48.2h3.4v12.3h7.7v3.1H86.2z"/>
	<path class="st2" d="M99.5,50.5v-3h3.5v3H99.5z M99.6,63.6V51.8h3.3v11.8H99.6z"/>
	<path class="st2" d="M112.7,63.7h-3l-4.6-11.9h3.5l2.6,7.9l2.7-7.9h3.5L112.7,63.7z"/>
	<path class="st2" d="M129.6,58.8h-8.2c0.3,1.5,1.4,2.3,2.9,2.3c1.1,0,1.9-0.4,2.9-1.2l1.9,1.7c-1.1,1.4-2.7,2.2-4.8,2.2
		c-3.5,0-6.2-2.5-6.2-6.1v0c0-3.4,2.4-6.1,5.8-6.1c3.9,0,5.7,3.1,5.7,6.4v0C129.7,58.3,129.6,58.5,129.6,58.8z M123.9,54.2
		c-1.4,0-2.3,1-2.6,2.5h5C126.2,55.3,125.3,54.2,123.9,54.2z"/>
	<path class="st2" d="M146.3,63.8c-4.5,0-7.9-3.5-7.9-7.9v0c0-4.4,3.3-8,8-8c2.9,0,4.6,1,6.1,2.4l-2.2,2.5c-1.2-1.1-2.4-1.7-3.9-1.7
		c-2.6,0-4.5,2.2-4.5,4.8v0c0,2.6,1.8,4.8,4.5,4.8c1.8,0,2.8-0.7,4-1.8l2.2,2.2C151,62.8,149.3,63.8,146.3,63.8z"/>
	<path class="st2" d="M155.1,63.6V47.5h3.3v16.1H155.1z"/>
	<path class="st2" d="M168.5,63.6v-1.3c-0.8,0.9-1.9,1.5-3.6,1.5c-2.2,0-4-1.3-4-3.6v0c0-2.6,2-3.8,4.8-3.8c1.2,0,2,0.2,2.9,0.5
		v-0.2c0-1.4-0.9-2.2-2.5-2.2c-1.3,0-2.2,0.2-3.3,0.6l-0.8-2.6c1.3-0.6,2.6-0.9,4.6-0.9c3.7,0,5.3,1.9,5.3,5.1v6.8H168.5z
		 M168.6,58.8c-0.6-0.3-1.3-0.4-2.1-0.4c-1.4,0-2.3,0.6-2.3,1.6v0c0,0.9,0.7,1.4,1.8,1.4c1.6,0,2.6-0.9,2.6-2.1V58.8z"/>
	<path class="st2" d="M178.8,63.8c-1.7,0-3.5-0.5-5.1-1.8l1.4-2.2c1.3,0.9,2.6,1.4,3.7,1.4c1,0,1.4-0.4,1.4-0.9v0
		c0-0.7-1.1-1-2.4-1.4c-1.7-0.5-3.5-1.3-3.5-3.5v0c0-2.4,1.9-3.7,4.3-3.7c1.5,0,3.1,0.5,4.4,1.4l-1.3,2.3c-1.2-0.7-2.3-1.1-3.2-1.1
		c-0.8,0-1.2,0.4-1.2,0.8v0c0,0.7,1.1,1,2.4,1.4c1.7,0.5,3.6,1.3,3.6,3.5v0C183.3,62.6,181.3,63.8,178.8,63.8z"/>
	<path class="st2" d="M189.6,63.8c-1.7,0-3.5-0.5-5.1-1.8l1.4-2.2c1.3,0.9,2.6,1.4,3.7,1.4c1,0,1.4-0.4,1.4-0.9v0
		c0-0.7-1.1-1-2.4-1.4c-1.7-0.5-3.5-1.3-3.5-3.5v0c0-2.4,1.9-3.7,4.3-3.7c1.5,0,3.1,0.5,4.4,1.4l-1.3,2.3c-1.2-0.7-2.3-1.1-3.2-1.1
		c-0.8,0-1.2,0.4-1.2,0.8v0c0,0.7,1.1,1,2.4,1.4c1.7,0.5,3.6,1.3,3.6,3.5v0C194.1,62.6,192.2,63.8,189.6,63.8z"/>
	<path class="st2" d="M207.5,58.8h-8.2c0.3,1.5,1.4,2.3,2.9,2.3c1.1,0,1.9-0.4,2.9-1.2l1.9,1.7c-1.1,1.4-2.7,2.2-4.8,2.2
		c-3.5,0-6.2-2.5-6.2-6.1v0c0-3.4,2.4-6.1,5.8-6.1c3.9,0,5.7,3.1,5.7,6.4v0C207.5,58.3,207.5,58.5,207.5,58.8z M201.8,54.2
		c-1.4,0-2.3,1-2.6,2.5h5C204.1,55.3,203.2,54.2,201.8,54.2z"/>
	<path class="st2" d="M214.1,63.8c-1.7,0-3.5-0.5-5.1-1.8l1.4-2.2c1.3,0.9,2.6,1.4,3.7,1.4c1,0,1.4-0.4,1.4-0.9v0
		c0-0.7-1.1-1-2.4-1.4c-1.7-0.5-3.5-1.3-3.5-3.5v0c0-2.4,1.9-3.7,4.3-3.7c1.5,0,3.1,0.5,4.4,1.4l-1.3,2.3c-1.2-0.7-2.3-1.1-3.2-1.1
		c-0.8,0-1.2,0.4-1.2,0.8v0c0,0.7,1.1,1,2.4,1.4c1.7,0.5,3.6,1.3,3.6,3.5v0C218.7,62.6,216.7,63.8,214.1,63.8z"/>
</g>
<g>
	<path class="st2" d="M96.3,39.7c-0.3,0.7-0.6,1.3-1.1,1.8c-0.5,0.5-1.1,0.9-1.7,1.2c-0.7,0.3-1.4,0.5-2.3,0.5s-1.6-0.1-2.2-0.4
		c-0.7-0.3-1.3-0.7-1.7-1.2c-0.5-0.5-0.9-1.1-1.1-1.8c-0.3-0.7-0.4-1.4-0.4-2.1c0-0.8,0.1-1.5,0.4-2.1c0.3-0.7,0.6-1.3,1.1-1.8
		c0.5-0.5,1.1-0.9,1.7-1.2c0.7-0.3,1.4-0.5,2.3-0.5c0.8,0,1.6,0.1,2.2,0.4c0.7,0.3,1.3,0.7,1.7,1.2c0.5,0.5,0.9,1.1,1.1,1.8
		c0.3,0.7,0.4,1.4,0.4,2.1C96.7,38.4,96.6,39.1,96.3,39.7z M95.2,35.9c-0.2-0.5-0.5-1-0.9-1.4c-0.4-0.4-0.8-0.7-1.4-1
		c-0.5-0.2-1.1-0.4-1.7-0.4c-0.6,0-1.2,0.1-1.7,0.3s-1,0.5-1.3,0.9c-0.4,0.4-0.7,0.9-0.9,1.4S87,37,87,37.6c0,0.6,0.1,1.2,0.3,1.7
		c0.2,0.5,0.5,1,0.9,1.4c0.4,0.4,0.8,0.7,1.4,1c0.5,0.2,1.1,0.4,1.7,0.4c0.6,0,1.2-0.1,1.7-0.3c0.5-0.2,1-0.5,1.3-0.9
		s0.7-0.9,0.9-1.4c0.2-0.5,0.3-1.1,0.3-1.7C95.5,37,95.4,36.4,95.2,35.9z"/>
	<path class="st2" d="M100.3,43h-1.2v-8h1.2v1.4c0.3-0.4,0.6-0.8,1-1.1c0.4-0.3,1-0.5,1.7-0.5c0.5,0,0.9,0.1,1.3,0.2
		c0.4,0.2,0.7,0.4,1,0.7c0.3,0.3,0.5,0.6,0.6,1c0.1,0.4,0.2,0.8,0.2,1.3v5h-1.2v-4.7c0-0.7-0.2-1.3-0.6-1.8
		c-0.4-0.4-0.9-0.6-1.6-0.6c-0.3,0-0.7,0.1-0.9,0.2c-0.3,0.1-0.5,0.3-0.8,0.5c-0.2,0.2-0.4,0.5-0.5,0.8c-0.1,0.3-0.2,0.6-0.2,1V43z"
		/>
	<path class="st2" d="M109.7,40.6c0.2,0.3,0.4,0.6,0.6,0.8c0.3,0.2,0.5,0.4,0.9,0.5c0.3,0.1,0.7,0.2,1,0.2c0.6,0,1-0.1,1.4-0.3
		c0.4-0.2,0.8-0.5,1.1-0.8l0.7,0.7c-0.4,0.5-0.9,0.8-1.4,1.1c-0.5,0.3-1.2,0.4-1.9,0.4c-0.5,0-1.1-0.1-1.5-0.3s-0.9-0.5-1.3-0.8
		c-0.4-0.4-0.7-0.8-0.9-1.3c-0.2-0.5-0.3-1.1-0.3-1.7c0-0.6,0.1-1.1,0.3-1.6s0.5-1,0.8-1.3c0.3-0.4,0.7-0.7,1.2-0.9
		c0.5-0.2,1-0.3,1.5-0.3c0.6,0,1.1,0.1,1.6,0.3c0.5,0.2,0.9,0.5,1.2,0.9c0.3,0.4,0.6,0.8,0.7,1.3c0.2,0.5,0.2,1.1,0.2,1.7
		c0,0.1,0,0.1,0,0.2c0,0.1,0,0.1,0,0.2h-6.3C109.4,39.9,109.5,40.3,109.7,40.6z M114.5,38.6c0-0.4-0.1-0.7-0.2-1
		c-0.1-0.3-0.3-0.6-0.5-0.9c-0.2-0.2-0.5-0.4-0.8-0.6c-0.3-0.1-0.7-0.2-1.1-0.2c-0.3,0-0.7,0.1-1,0.2c-0.3,0.1-0.6,0.3-0.8,0.6
		c-0.2,0.2-0.4,0.5-0.6,0.9c-0.1,0.3-0.2,0.7-0.3,1.1H114.5z"/>
	<path class="st2" d="M117.4,39v-1.3h4.3V39H117.4z"/>
	<path class="st2" d="M125.7,40.8c0,0.5,0.1,0.8,0.4,1c0.2,0.2,0.6,0.3,1,0.3c0.2,0,0.4,0,0.6-0.1c0.2,0,0.4-0.1,0.6-0.2v1
		c-0.2,0.1-0.4,0.2-0.7,0.3c-0.2,0.1-0.5,0.1-0.8,0.1c-0.3,0-0.6,0-0.9-0.1c-0.3-0.1-0.5-0.2-0.7-0.4c-0.2-0.2-0.4-0.4-0.5-0.7
		s-0.2-0.6-0.2-1v-4.8h-1.1v-1h1.1v-2.4h1.2V35h2.5v1h-2.5V40.8z"/>
	<path class="st2" d="M137.6,40.6c-0.2,0.5-0.5,1-0.9,1.3c-0.4,0.4-0.8,0.7-1.3,0.9s-1.1,0.3-1.7,0.3s-1.1-0.1-1.7-0.3
		c-0.5-0.2-0.9-0.5-1.3-0.9c-0.4-0.4-0.7-0.8-0.9-1.3c-0.2-0.5-0.3-1-0.3-1.6s0.1-1.1,0.3-1.6c0.2-0.5,0.5-1,0.9-1.3
		c0.4-0.4,0.8-0.7,1.3-0.9c0.5-0.2,1.1-0.3,1.7-0.3c0.6,0,1.1,0.1,1.7,0.3c0.5,0.2,0.9,0.5,1.3,0.9c0.4,0.4,0.7,0.8,0.9,1.3
		c0.2,0.5,0.3,1,0.3,1.6S137.8,40.1,137.6,40.6z M136.4,37.8c-0.1-0.4-0.4-0.7-0.6-1s-0.6-0.5-0.9-0.7c-0.4-0.2-0.8-0.2-1.2-0.2
		c-0.4,0-0.8,0.1-1.2,0.2c-0.4,0.2-0.7,0.4-0.9,0.7c-0.3,0.3-0.5,0.6-0.6,1c-0.1,0.4-0.2,0.8-0.2,1.2s0.1,0.8,0.2,1.2
		c0.1,0.4,0.4,0.7,0.6,1c0.3,0.3,0.6,0.5,0.9,0.7c0.4,0.2,0.8,0.2,1.2,0.2c0.4,0,0.8-0.1,1.2-0.2s0.7-0.4,0.9-0.7
		c0.3-0.3,0.5-0.6,0.6-1c0.1-0.4,0.2-0.8,0.2-1.2S136.6,38.2,136.4,37.8z"/>
	<path class="st2" d="M139.7,39v-1.3h4.3V39H139.7z"/>
	<path class="st2" d="M153.8,40.6c-0.2,0.5-0.5,1-0.9,1.3c-0.4,0.4-0.8,0.7-1.3,0.9c-0.5,0.2-1.1,0.3-1.7,0.3
		c-0.6,0-1.1-0.1-1.7-0.3s-0.9-0.5-1.3-0.9c-0.4-0.4-0.7-0.8-0.9-1.3c-0.2-0.5-0.3-1-0.3-1.6s0.1-1.1,0.3-1.6c0.2-0.5,0.5-1,0.9-1.3
		c0.4-0.4,0.8-0.7,1.3-0.9s1.1-0.3,1.7-0.3c0.6,0,1.1,0.1,1.7,0.3c0.5,0.2,0.9,0.5,1.3,0.9c0.4,0.4,0.7,0.8,0.9,1.3
		c0.2,0.5,0.3,1,0.3,1.6S154,40.1,153.8,40.6z M152.7,37.8c-0.1-0.4-0.4-0.7-0.6-1s-0.6-0.5-0.9-0.7c-0.4-0.2-0.8-0.2-1.2-0.2
		c-0.4,0-0.8,0.1-1.2,0.2s-0.7,0.4-0.9,0.7c-0.3,0.3-0.5,0.6-0.6,1c-0.1,0.4-0.2,0.8-0.2,1.2s0.1,0.8,0.2,1.2c0.1,0.4,0.4,0.7,0.6,1
		c0.3,0.3,0.6,0.5,0.9,0.7c0.4,0.2,0.8,0.2,1.2,0.2c0.4,0,0.8-0.1,1.2-0.2c0.4-0.2,0.7-0.4,0.9-0.7c0.3-0.3,0.5-0.6,0.6-1
		c0.1-0.4,0.2-0.8,0.2-1.2S152.9,38.2,152.7,37.8z"/>
	<path class="st2" d="M157.5,43h-1.2v-8h1.2v1.4c0.3-0.4,0.6-0.8,1-1.1c0.4-0.3,1-0.5,1.7-0.5c0.5,0,0.9,0.1,1.3,0.2
		c0.4,0.2,0.7,0.4,1,0.7c0.3,0.3,0.5,0.6,0.6,1c0.1,0.4,0.2,0.8,0.2,1.3v5h-1.2v-4.7c0-0.7-0.2-1.3-0.6-1.8
		c-0.4-0.4-0.9-0.6-1.6-0.6c-0.3,0-0.7,0.1-0.9,0.2c-0.3,0.1-0.5,0.3-0.8,0.5s-0.4,0.5-0.5,0.8c-0.1,0.3-0.2,0.6-0.2,1V43z"/>
	<path class="st2" d="M166.8,40.6c0.2,0.3,0.4,0.6,0.6,0.8c0.3,0.2,0.5,0.4,0.9,0.5c0.3,0.1,0.7,0.2,1,0.2c0.6,0,1-0.1,1.4-0.3
		c0.4-0.2,0.8-0.5,1.1-0.8l0.7,0.7c-0.4,0.5-0.9,0.8-1.4,1.1c-0.5,0.3-1.2,0.4-1.9,0.4c-0.5,0-1.1-0.1-1.5-0.3
		c-0.5-0.2-0.9-0.5-1.3-0.8c-0.4-0.4-0.7-0.8-0.9-1.3c-0.2-0.5-0.3-1.1-0.3-1.7c0-0.6,0.1-1.1,0.3-1.6s0.5-1,0.8-1.3
		c0.3-0.4,0.7-0.7,1.2-0.9c0.5-0.2,1-0.3,1.5-0.3c0.6,0,1.1,0.1,1.6,0.3c0.5,0.2,0.9,0.5,1.2,0.9c0.3,0.4,0.6,0.8,0.7,1.3
		c0.2,0.5,0.2,1.1,0.2,1.7c0,0.1,0,0.1,0,0.2c0,0.1,0,0.1,0,0.2h-6.3C166.6,39.9,166.7,40.3,166.8,40.6z M171.6,38.6
		c0-0.4-0.1-0.7-0.2-1c-0.1-0.3-0.3-0.6-0.5-0.9c-0.2-0.2-0.5-0.4-0.8-0.6c-0.3-0.1-0.7-0.2-1.1-0.2c-0.3,0-0.7,0.1-1,0.2
		c-0.3,0.1-0.6,0.3-0.8,0.6c-0.2,0.2-0.4,0.5-0.6,0.9c-0.1,0.3-0.2,0.7-0.3,1.1H171.6z"/>
</g>
</svg>
