<?xml version="1.0" encoding="utf-8"?>
<!-- Generator: Adobe Illustrator 25.4.1, SVG Export Plug-In . SVG Version: 6.00 Build 0)  -->
<svg version="1.1" id="Layer_1" xmlns="http://www.w3.org/2000/svg" xmlns:xlink="http://www.w3.org/1999/xlink" x="0px" y="0px"
	 viewBox="0 0 370 110" style="enable-background:new 0 0 370 110;" xml:space="preserve">
<style type="text/css">
	.st0{fill:#FFFFFF;fill-opacity:0.8;}
	.st1{fill:#F88C3D;}
	.st2{fill:#FFFFFF;}
	.st3{fill:#606060;}
</style>
<g>
	<path class="st0" d="M20,0h330c11,0,20,9,20,20v70c0,11-9,20-20,20H20c-11,0-20-9-20-20V20C0,9,9,0,20,0z"/>
</g>
<path class="st1" d="M34,30h34c4.4,0,8,3.6,8,8v34c0,4.4-3.6,8-8,8H34c-4.4,0-8-3.6-8-8V38C26,33.6,29.6,30,34,30z"/>
<path class="st2" d="M64.9,44.3H37.1L51,55.8l14.1-11.4C65,44.3,65,44.3,64.9,44.3z"/>
<path class="st2" d="M51.7,58c-0.4,0.3-1,0.3-1.4,0L36,46.2v18.5c0,0.6,0.5,1.1,1.1,1.1h27.9c0.6,0,1.1-0.5,1.1-1.1V46.3L51.7,58z"
	/>
<g>
	<path class="st3" d="M112.4,52.3c-0.3,0.2-0.6,0.4-0.9,0.5c-0.3,0.1-0.6,0.3-1,0.3s-0.8,0.1-1.2,0.1c-0.7,0-1.3-0.1-1.9-0.4
		c-0.6-0.3-1.1-0.6-1.5-1c-0.4-0.4-0.8-1-1-1.6c-0.2-0.6-0.4-1.2-0.4-1.9c0-0.7,0.1-1.3,0.4-1.9s0.6-1.1,1-1.6
		c0.4-0.4,0.9-0.8,1.5-1.1c0.6-0.3,1.3-0.4,2-0.4c0.4,0,0.8,0,1.2,0.1c0.4,0.1,0.7,0.2,1,0.3c0.3,0.1,0.6,0.3,0.8,0.5
		c0.3,0.2,0.5,0.4,0.7,0.6l-1.1,1.2c-0.4-0.4-0.8-0.6-1.2-0.9c-0.4-0.2-0.9-0.3-1.4-0.3c-0.5,0-0.9,0.1-1.3,0.3
		c-0.4,0.2-0.7,0.4-1,0.7c-0.3,0.3-0.5,0.7-0.6,1.1c-0.2,0.4-0.2,0.8-0.2,1.3c0,0.5,0.1,0.9,0.2,1.3c0.2,0.4,0.4,0.8,0.6,1.1
		s0.6,0.5,1,0.7c0.4,0.2,0.8,0.3,1.3,0.3c0.6,0,1.1-0.1,1.5-0.3c0.4-0.2,0.8-0.5,1.2-0.9l1.1,1.1C112.9,51.8,112.6,52.1,112.4,52.3z
		"/>
	<path class="st3" d="M121.5,51c-0.2,0.5-0.5,0.8-0.8,1.2c-0.3,0.3-0.7,0.6-1.2,0.8c-0.5,0.2-1,0.3-1.5,0.3c-0.5,0-1-0.1-1.5-0.3
		c-0.5-0.2-0.9-0.5-1.2-0.8c-0.3-0.3-0.6-0.7-0.8-1.2s-0.3-0.9-0.3-1.4s0.1-1,0.3-1.5c0.2-0.5,0.5-0.9,0.8-1.2
		c0.3-0.3,0.7-0.6,1.2-0.8c0.5-0.2,1-0.3,1.5-0.3s1.1,0.1,1.5,0.3c0.5,0.2,0.9,0.5,1.2,0.8c0.3,0.3,0.6,0.7,0.8,1.2
		c0.2,0.5,0.3,0.9,0.3,1.4S121.7,50.5,121.5,51z M120,48.6c-0.1-0.3-0.3-0.5-0.5-0.7c-0.2-0.2-0.4-0.4-0.7-0.5
		c-0.3-0.1-0.6-0.2-0.9-0.2c-0.3,0-0.6,0.1-0.9,0.2c-0.3,0.1-0.5,0.3-0.7,0.5c-0.2,0.2-0.3,0.4-0.4,0.7c-0.1,0.3-0.1,0.6-0.1,0.9
		c0,0.3,0.1,0.6,0.2,0.9s0.3,0.5,0.5,0.7c0.2,0.2,0.4,0.4,0.7,0.5s0.6,0.2,0.9,0.2c0.3,0,0.6-0.1,0.9-0.2s0.5-0.3,0.7-0.5
		c0.2-0.2,0.3-0.4,0.4-0.7s0.1-0.6,0.1-0.9S120.1,48.9,120,48.6z"/>
	<path class="st3" d="M125.1,53.1h-1.7v-7.2h1.7v1.1c0.1-0.2,0.2-0.3,0.4-0.5c0.1-0.1,0.3-0.3,0.5-0.4s0.4-0.2,0.6-0.3
		c0.2-0.1,0.5-0.1,0.7-0.1c0.8,0,1.4,0.2,1.9,0.7c0.4,0.5,0.7,1.2,0.7,2v4.6h-1.7V49c0-0.6-0.1-1-0.4-1.3s-0.6-0.5-1.1-0.5
		c-0.5,0-0.9,0.2-1.2,0.5c-0.3,0.3-0.4,0.7-0.4,1.3V53.1z"/>
	<path class="st3" d="M133.5,53.1h-1.7v-7.2h1.7v1.1c0.1-0.2,0.2-0.3,0.4-0.5c0.1-0.1,0.3-0.3,0.5-0.4s0.4-0.2,0.6-0.3
		c0.2-0.1,0.5-0.1,0.7-0.1c0.8,0,1.4,0.2,1.9,0.7c0.4,0.5,0.7,1.2,0.7,2v4.6h-1.7V49c0-0.6-0.1-1-0.4-1.3s-0.6-0.5-1.1-0.5
		c-0.5,0-0.9,0.2-1.2,0.5c-0.3,0.3-0.4,0.7-0.4,1.3V53.1z"/>
	<path class="st3" d="M142.2,51.4c0.4,0.3,0.8,0.5,1.4,0.5c0.4,0,0.8-0.1,1.1-0.2c0.3-0.1,0.6-0.4,0.9-0.6l1,0.9
		c-0.3,0.4-0.8,0.7-1.2,1s-1,0.4-1.7,0.4c-0.5,0-1-0.1-1.4-0.3c-0.4-0.2-0.8-0.4-1.2-0.8s-0.6-0.7-0.8-1.2s-0.3-1-0.3-1.5
		c0-0.5,0.1-1,0.3-1.4c0.2-0.5,0.4-0.8,0.7-1.2c0.3-0.3,0.7-0.6,1.1-0.8c0.4-0.2,0.9-0.3,1.4-0.3c0.6,0,1.1,0.1,1.5,0.3
		c0.4,0.2,0.8,0.5,1.1,0.8c0.3,0.4,0.5,0.8,0.6,1.2c0.1,0.5,0.2,1,0.2,1.5c0,0.1,0,0.1,0,0.2s0,0.1,0,0.2h-5.3
		C141.6,50.7,141.8,51.1,142.2,51.4z M145.1,49c0-0.3-0.1-0.5-0.2-0.7c-0.1-0.2-0.2-0.4-0.4-0.6c-0.2-0.2-0.3-0.3-0.5-0.4
		c-0.2-0.1-0.5-0.1-0.7-0.1c-0.5,0-0.9,0.2-1.3,0.5s-0.5,0.8-0.6,1.4H145.1z"/>
	<path class="st3" d="M153.4,52.9c-0.5,0.2-1,0.4-1.7,0.4c-0.5,0-1-0.1-1.5-0.3c-0.5-0.2-0.8-0.5-1.2-0.8s-0.6-0.7-0.8-1.2
		s-0.3-0.9-0.3-1.4s0.1-1,0.3-1.4c0.2-0.5,0.4-0.8,0.8-1.2c0.3-0.3,0.7-0.6,1.2-0.8c0.5-0.2,1-0.3,1.5-0.3c0.7,0,1.2,0.1,1.7,0.3
		c0.4,0.2,0.8,0.5,1.2,0.9l-1,1.1c-0.3-0.3-0.5-0.5-0.8-0.6c-0.3-0.2-0.6-0.3-1-0.3c-0.3,0-0.6,0.1-0.8,0.2
		c-0.3,0.1-0.5,0.3-0.7,0.5s-0.3,0.4-0.4,0.7c-0.1,0.3-0.2,0.6-0.2,0.9c0,0.3,0.1,0.6,0.2,0.9c0.1,0.3,0.3,0.5,0.4,0.7
		c0.2,0.2,0.4,0.4,0.7,0.5c0.3,0.1,0.6,0.2,0.9,0.2c0.4,0,0.7-0.1,1-0.3c0.3-0.2,0.6-0.4,0.8-0.6l1,1
		C154.3,52.3,153.9,52.6,153.4,52.9z"/>
	<path class="st3" d="M158.1,50.9c0,0.3,0.1,0.5,0.2,0.7c0.2,0.1,0.4,0.2,0.6,0.2c0.4,0,0.7-0.1,1-0.2v1.3c-0.2,0.1-0.4,0.2-0.7,0.3
		c-0.2,0.1-0.5,0.1-0.8,0.1c-0.3,0-0.6,0-0.8-0.1c-0.3-0.1-0.5-0.2-0.7-0.4c-0.2-0.2-0.3-0.4-0.4-0.6s-0.2-0.6-0.2-1v-3.8h-0.9v-1.4
		h0.9v-2h1.7v2h1.9v1.4h-1.9V50.9z"/>
	<path class="st3" d="M173.9,49c0,0.7-0.1,1.3-0.3,1.9s-0.5,1-0.8,1.3s-0.8,0.6-1.3,0.8c-0.5,0.2-1.1,0.3-1.7,0.3
		c-0.6,0-1.2-0.1-1.7-0.3c-0.5-0.2-0.9-0.4-1.3-0.8c-0.4-0.4-0.6-0.8-0.8-1.3c-0.2-0.5-0.3-1.1-0.3-1.8v-5.5h1.7V49
		c0,0.9,0.2,1.6,0.6,2s1,0.7,1.8,0.7c0.7,0,1.3-0.2,1.8-0.7c0.4-0.4,0.6-1.1,0.6-2v-5.5h1.7V49z"/>
	<path class="st3" d="M180.9,52c-0.1,0.3-0.3,0.5-0.6,0.7c-0.2,0.2-0.5,0.3-0.8,0.4s-0.7,0.1-1,0.1c-0.5,0-1-0.1-1.6-0.3
		c-0.5-0.2-1-0.4-1.5-0.8l0.7-1.1c0.4,0.3,0.8,0.5,1.2,0.7s0.8,0.2,1.2,0.2c0.4,0,0.6-0.1,0.8-0.2c0.2-0.1,0.3-0.3,0.3-0.6v0
		c0-0.1,0-0.3-0.1-0.4c-0.1-0.1-0.2-0.2-0.4-0.3s-0.3-0.1-0.5-0.2c-0.2-0.1-0.4-0.1-0.6-0.2c-0.3-0.1-0.5-0.2-0.8-0.3
		c-0.3-0.1-0.5-0.2-0.7-0.4c-0.2-0.2-0.4-0.4-0.5-0.6c-0.1-0.2-0.2-0.5-0.2-0.9v0c0-0.3,0.1-0.6,0.2-0.9c0.1-0.3,0.3-0.5,0.5-0.7
		c0.2-0.2,0.5-0.3,0.8-0.4c0.3-0.1,0.6-0.1,1-0.1c0.5,0,0.9,0.1,1.4,0.2c0.5,0.1,0.9,0.3,1.3,0.6l-0.6,1.2c-0.3-0.2-0.7-0.4-1-0.5
		c-0.4-0.1-0.7-0.2-1-0.2c-0.3,0-0.6,0.1-0.7,0.2c-0.2,0.1-0.3,0.3-0.3,0.5v0c0,0.1,0,0.2,0.1,0.3c0.1,0.1,0.2,0.2,0.4,0.3
		s0.3,0.1,0.5,0.2c0.2,0.1,0.4,0.1,0.6,0.2c0.3,0.1,0.5,0.2,0.8,0.3c0.3,0.1,0.5,0.2,0.7,0.4c0.2,0.2,0.4,0.4,0.5,0.6
		c0.1,0.2,0.2,0.5,0.2,0.8v0C181.1,51.4,181,51.7,180.9,52z"/>
	<path class="st3" d="M196.1,53.1h-1.8l-1-2.3h-4.5l-1,2.3h-1.7l4.2-9.5h1.5L196.1,53.1z M191.1,45.5l-1.6,3.8h3.3L191.1,45.5z"/>
	<path class="st3" d="M199.2,53.1h-1.7v-7.2h1.7v1.1c0.1-0.2,0.2-0.3,0.4-0.5c0.1-0.1,0.3-0.3,0.5-0.4s0.4-0.2,0.6-0.3
		s0.5-0.1,0.8-0.1c0.8,0,1.4,0.2,1.9,0.7c0.4,0.5,0.7,1.2,0.7,2v4.6h-1.7V49c0-0.6-0.1-1-0.4-1.3s-0.6-0.5-1.1-0.5
		c-0.5,0-0.9,0.2-1.2,0.5c-0.3,0.3-0.4,0.7-0.4,1.3V53.1z"/>
	<path class="st3" d="M209.6,53.3c-0.1,0.4-0.3,0.7-0.4,0.9c-0.2,0.3-0.3,0.5-0.5,0.6c-0.2,0.2-0.4,0.3-0.6,0.3s-0.5,0.1-0.8,0.1
		c-0.3,0-0.6,0-0.9-0.1c-0.3-0.1-0.5-0.2-0.8-0.3l0.6-1.2c0.2,0.1,0.3,0.1,0.5,0.2c0.2,0,0.3,0.1,0.5,0.1c0.2,0,0.4-0.1,0.6-0.2
		s0.3-0.3,0.4-0.6l-3-7.1h1.7l2,5.3l1.9-5.3h1.7L209.6,53.3z"/>
	<path class="st3" d="M215.8,50.9c0,0.3,0.1,0.5,0.2,0.7c0.2,0.1,0.4,0.2,0.7,0.2c0.4,0,0.7-0.1,1-0.2v1.3c-0.2,0.1-0.4,0.2-0.7,0.3
		c-0.2,0.1-0.5,0.1-0.8,0.1c-0.3,0-0.6,0-0.8-0.1c-0.3-0.1-0.5-0.2-0.7-0.4c-0.2-0.2-0.3-0.4-0.4-0.6c-0.1-0.3-0.2-0.6-0.2-1v-3.8
		h-0.9v-1.4h0.9v-2h1.7v2h1.9v1.4h-1.9V50.9z"/>
	<path class="st3" d="M219.4,44.8v-1.6h1.8v1.6H219.4z M219.5,53.1v-7.2h1.7v7.2H219.5z"/>
	<path class="st3" d="M230.2,46.1c0.4-0.2,0.9-0.3,1.4-0.3c0.8,0,1.4,0.2,1.8,0.7c0.4,0.5,0.7,1.1,0.7,2v4.6h-1.7V49
		c0-0.6-0.1-1-0.4-1.3c-0.3-0.3-0.6-0.4-1.1-0.4c-0.4,0-0.8,0.2-1.1,0.5s-0.4,0.7-0.4,1.3v4h-1.7V49c0-0.6-0.1-1-0.4-1.3
		c-0.3-0.3-0.6-0.4-1.1-0.4s-0.8,0.2-1.1,0.5c-0.3,0.3-0.4,0.8-0.4,1.3v4h-1.7v-7.2h1.7V47c0.1-0.2,0.2-0.3,0.4-0.5
		c0.1-0.1,0.3-0.3,0.5-0.4s0.4-0.2,0.6-0.3s0.5-0.1,0.7-0.1c0.5,0,1,0.1,1.3,0.3s0.6,0.5,0.8,0.9C229.5,46.7,229.8,46.4,230.2,46.1z
		"/>
	<path class="st3" d="M238.1,51.4c0.4,0.3,0.8,0.5,1.4,0.5c0.4,0,0.8-0.1,1.1-0.2c0.3-0.1,0.6-0.4,0.9-0.6l1,0.9
		c-0.3,0.4-0.8,0.7-1.2,1c-0.5,0.2-1,0.4-1.7,0.4c-0.5,0-1-0.1-1.4-0.3c-0.4-0.2-0.8-0.4-1.2-0.8c-0.3-0.3-0.6-0.7-0.8-1.2
		s-0.3-1-0.3-1.5c0-0.5,0.1-1,0.3-1.4c0.2-0.5,0.4-0.8,0.7-1.2c0.3-0.3,0.7-0.6,1.1-0.8c0.4-0.2,0.9-0.3,1.4-0.3
		c0.6,0,1.1,0.1,1.5,0.3s0.8,0.5,1.1,0.8c0.3,0.4,0.5,0.8,0.6,1.2c0.1,0.5,0.2,1,0.2,1.5c0,0.1,0,0.1,0,0.2c0,0.1,0,0.1,0,0.2h-5.3
		C237.4,50.7,237.7,51.1,238.1,51.4z M241,49c0-0.3-0.1-0.5-0.2-0.7c-0.1-0.2-0.2-0.4-0.4-0.6c-0.2-0.2-0.3-0.3-0.5-0.4
		c-0.2-0.1-0.5-0.1-0.7-0.1c-0.5,0-0.9,0.2-1.3,0.5c-0.3,0.3-0.5,0.8-0.6,1.4H241z"/>
</g>
<g>
	<path class="st3" d="M110.5,62h0.8l2.3,7l2.4-7h1l-3,8.5h-0.8l-2.3-6.8l-2.3,6.8h-0.8l-3-8.5h1l2.4,7L110.5,62z"/>
	<path class="st3" d="M118.5,68.5c0.1,0.3,0.3,0.5,0.5,0.7c0.2,0.2,0.4,0.3,0.7,0.4s0.5,0.1,0.8,0.1c0.4,0,0.8-0.1,1.1-0.2
		c0.3-0.2,0.6-0.4,0.8-0.6l0.6,0.5c-0.3,0.4-0.7,0.6-1.1,0.8c-0.4,0.2-0.9,0.3-1.5,0.3c-0.4,0-0.8-0.1-1.2-0.2
		c-0.4-0.2-0.7-0.4-1-0.7c-0.3-0.3-0.5-0.6-0.7-1c-0.2-0.4-0.2-0.8-0.2-1.3c0-0.4,0.1-0.9,0.2-1.3c0.1-0.4,0.4-0.7,0.6-1
		c0.3-0.3,0.6-0.5,0.9-0.7c0.4-0.2,0.8-0.3,1.2-0.3c0.5,0,0.9,0.1,1.2,0.3c0.4,0.2,0.7,0.4,0.9,0.7s0.4,0.6,0.6,1
		c0.1,0.4,0.2,0.8,0.2,1.3c0,0,0,0.1,0,0.1s0,0.1,0,0.2h-4.9C118.3,68,118.4,68.3,118.5,68.5z M122.3,66.9c0-0.3-0.1-0.5-0.2-0.8
		c-0.1-0.3-0.2-0.5-0.4-0.7c-0.2-0.2-0.4-0.3-0.6-0.5c-0.2-0.1-0.5-0.2-0.8-0.2c-0.3,0-0.5,0.1-0.8,0.2c-0.2,0.1-0.4,0.3-0.6,0.4
		c-0.2,0.2-0.3,0.4-0.4,0.7s-0.2,0.5-0.2,0.8H122.3z"/>
	<path class="st3" d="M129.7,65c-0.3,0.1-0.6,0.2-0.9,0.3l-0.3-0.8c0.3-0.2,0.7-0.3,1-0.4c0.4-0.1,0.8-0.1,1.2-0.1
		c0.8,0,1.5,0.2,2,0.6s0.7,1,0.7,1.9v3.8h-0.9v-0.9c-0.2,0.3-0.5,0.5-0.9,0.7s-0.8,0.3-1.4,0.3c-0.3,0-0.6,0-0.8-0.1
		c-0.3-0.1-0.5-0.2-0.7-0.4c-0.2-0.2-0.4-0.4-0.5-0.6c-0.1-0.2-0.2-0.5-0.2-0.9s0.1-0.6,0.2-0.9s0.3-0.5,0.5-0.6
		c0.2-0.2,0.5-0.3,0.8-0.4c0.3-0.1,0.7-0.1,1.1-0.1c0.4,0,0.7,0,1,0.1c0.3,0,0.6,0.1,0.9,0.2v-0.2c0-0.6-0.2-1-0.5-1.3
		c-0.3-0.3-0.8-0.4-1.4-0.4C130.3,64.9,130,65,129.7,65z M129.4,67.6c-0.3,0.2-0.5,0.5-0.5,0.9c0,0.2,0,0.4,0.1,0.5
		c0.1,0.2,0.2,0.3,0.3,0.4c0.1,0.1,0.3,0.2,0.5,0.2c0.2,0.1,0.4,0.1,0.6,0.1c0.3,0,0.6,0,0.8-0.1c0.3-0.1,0.5-0.2,0.7-0.3
		c0.2-0.1,0.3-0.3,0.4-0.5c0.1-0.2,0.2-0.4,0.2-0.7v-0.6c-0.2-0.1-0.5-0.1-0.8-0.2c-0.3-0.1-0.6-0.1-1-0.1
		C130.1,67.2,129.7,67.4,129.4,67.6z"/>
	<path class="st3" d="M136.3,70.4h-0.9v-6.2h0.9v1.6c0.1-0.3,0.3-0.5,0.4-0.7s0.4-0.4,0.6-0.6c0.2-0.2,0.5-0.3,0.7-0.4
		c0.3-0.1,0.5-0.1,0.8-0.1v1h-0.1c-0.3,0-0.7,0.1-1,0.2c-0.3,0.1-0.6,0.3-0.8,0.5c-0.2,0.2-0.4,0.5-0.5,0.9s-0.2,0.8-0.2,1.2V70.4z"
		/>
	<path class="st3" d="M140.8,68.5c0.1,0.3,0.3,0.5,0.5,0.7c0.2,0.2,0.4,0.3,0.7,0.4s0.5,0.1,0.8,0.1c0.4,0,0.8-0.1,1.1-0.2
		c0.3-0.2,0.6-0.4,0.8-0.6l0.6,0.5c-0.3,0.4-0.7,0.6-1.1,0.8c-0.4,0.2-0.9,0.3-1.5,0.3c-0.4,0-0.8-0.1-1.2-0.2
		c-0.4-0.2-0.7-0.4-1-0.7c-0.3-0.3-0.5-0.6-0.7-1c-0.2-0.4-0.2-0.8-0.2-1.3c0-0.4,0.1-0.9,0.2-1.3c0.1-0.4,0.4-0.7,0.6-1
		c0.3-0.3,0.6-0.5,0.9-0.7c0.4-0.2,0.8-0.3,1.2-0.3c0.5,0,0.9,0.1,1.2,0.3c0.4,0.2,0.7,0.4,0.9,0.7s0.4,0.6,0.6,1
		c0.1,0.4,0.2,0.8,0.2,1.3c0,0,0,0.1,0,0.1s0,0.1,0,0.2h-4.9C140.6,68,140.7,68.3,140.8,68.5z M144.5,66.9c0-0.3-0.1-0.5-0.2-0.8
		c-0.1-0.3-0.2-0.5-0.4-0.7c-0.2-0.2-0.4-0.3-0.6-0.5c-0.2-0.1-0.5-0.2-0.8-0.2c-0.3,0-0.5,0.1-0.8,0.2c-0.2,0.1-0.4,0.3-0.6,0.4
		c-0.2,0.2-0.3,0.4-0.4,0.7s-0.2,0.5-0.2,0.8H144.5z"/>
	<path class="st3" d="M151.6,70.4h-0.9v-8.8h0.9v3.6c0.2-0.3,0.5-0.6,0.8-0.9c0.3-0.2,0.8-0.4,1.3-0.4c0.4,0,0.7,0.1,1,0.2
		s0.5,0.3,0.7,0.5c0.2,0.2,0.4,0.5,0.5,0.8c0.1,0.3,0.2,0.6,0.2,1v3.9h-0.9v-3.6c0-0.6-0.1-1-0.4-1.4s-0.7-0.5-1.3-0.5
		c-0.3,0-0.5,0-0.7,0.1s-0.4,0.2-0.6,0.4s-0.3,0.4-0.4,0.6c-0.1,0.2-0.1,0.5-0.1,0.8V70.4z"/>
	<path class="st3" d="M158.9,68.5c0.1,0.3,0.3,0.5,0.5,0.7c0.2,0.2,0.4,0.3,0.7,0.4s0.5,0.1,0.8,0.1c0.4,0,0.8-0.1,1.1-0.2
		c0.3-0.2,0.6-0.4,0.8-0.6l0.6,0.5c-0.3,0.4-0.7,0.6-1.1,0.8c-0.4,0.2-0.9,0.3-1.5,0.3c-0.4,0-0.8-0.1-1.2-0.2
		c-0.4-0.2-0.7-0.4-1-0.7c-0.3-0.3-0.5-0.6-0.7-1c-0.2-0.4-0.2-0.8-0.2-1.3c0-0.4,0.1-0.9,0.2-1.3c0.1-0.4,0.4-0.7,0.6-1
		c0.3-0.3,0.6-0.5,0.9-0.7c0.4-0.2,0.8-0.3,1.2-0.3c0.5,0,0.9,0.1,1.2,0.3c0.4,0.2,0.7,0.4,0.9,0.7s0.4,0.6,0.6,1
		c0.1,0.4,0.2,0.8,0.2,1.3c0,0,0,0.1,0,0.1s0,0.1,0,0.2h-4.9C158.7,68,158.7,68.3,158.9,68.5z M162.6,66.9c0-0.3-0.1-0.5-0.2-0.8
		c-0.1-0.3-0.2-0.5-0.4-0.7c-0.2-0.2-0.4-0.3-0.6-0.5c-0.2-0.1-0.5-0.2-0.8-0.2c-0.3,0-0.5,0.1-0.8,0.2c-0.2,0.1-0.4,0.3-0.6,0.4
		c-0.2,0.2-0.3,0.4-0.4,0.7s-0.2,0.5-0.2,0.8H162.6z"/>
	<path class="st3" d="M166.1,70.4h-0.9v-6.2h0.9v1.6c0.1-0.3,0.3-0.5,0.4-0.7s0.4-0.4,0.6-0.6c0.2-0.2,0.5-0.3,0.7-0.4
		c0.3-0.1,0.5-0.1,0.8-0.1v1h-0.1c-0.3,0-0.7,0.1-1,0.2c-0.3,0.1-0.6,0.3-0.8,0.5c-0.2,0.2-0.4,0.5-0.5,0.9s-0.2,0.8-0.2,1.2V70.4z"
		/>
	<path class="st3" d="M170.6,68.5c0.1,0.3,0.3,0.5,0.5,0.7c0.2,0.2,0.4,0.3,0.7,0.4s0.5,0.1,0.8,0.1c0.4,0,0.8-0.1,1.1-0.2
		c0.3-0.2,0.6-0.4,0.8-0.6l0.6,0.5c-0.3,0.4-0.7,0.6-1.1,0.8c-0.4,0.2-0.9,0.3-1.5,0.3c-0.4,0-0.8-0.1-1.2-0.2
		c-0.4-0.2-0.7-0.4-1-0.7c-0.3-0.3-0.5-0.6-0.7-1c-0.2-0.4-0.2-0.8-0.2-1.3c0-0.4,0.1-0.9,0.2-1.3c0.1-0.4,0.4-0.7,0.6-1
		c0.3-0.3,0.6-0.5,0.9-0.7c0.4-0.2,0.8-0.3,1.2-0.3c0.5,0,0.9,0.1,1.2,0.3c0.4,0.2,0.7,0.4,0.9,0.7s0.4,0.6,0.6,1
		c0.1,0.4,0.2,0.8,0.2,1.3c0,0,0,0.1,0,0.1s0,0.1,0,0.2h-4.9C170.4,68,170.4,68.3,170.6,68.5z M174.3,66.9c0-0.3-0.1-0.5-0.2-0.8
		c-0.1-0.3-0.2-0.5-0.4-0.7c-0.2-0.2-0.4-0.3-0.6-0.5c-0.2-0.1-0.5-0.2-0.8-0.2c-0.3,0-0.5,0.1-0.8,0.2c-0.2,0.1-0.4,0.3-0.6,0.4
		c-0.2,0.2-0.3,0.4-0.4,0.7s-0.2,0.5-0.2,0.8H174.3z"/>
	<path class="st3" d="M181.7,68.6c0,0.4,0.1,0.7,0.3,0.8c0.2,0.2,0.4,0.2,0.8,0.2c0.2,0,0.3,0,0.5,0c0.1,0,0.3-0.1,0.4-0.2v0.8
		c-0.2,0.1-0.3,0.2-0.5,0.2s-0.4,0.1-0.6,0.1c-0.2,0-0.5,0-0.7-0.1c-0.2-0.1-0.4-0.2-0.6-0.3c-0.2-0.1-0.3-0.3-0.4-0.5
		c-0.1-0.2-0.1-0.5-0.1-0.8V65h-0.9v-0.8h0.9v-1.9h0.9v1.9h2V65h-2V68.6z"/>
	<path class="st3" d="M191,68.5c-0.2,0.4-0.4,0.7-0.7,1s-0.6,0.5-1,0.7c-0.4,0.2-0.8,0.3-1.3,0.3s-0.9-0.1-1.3-0.3
		c-0.4-0.2-0.7-0.4-1-0.7c-0.3-0.3-0.5-0.6-0.7-1c-0.2-0.4-0.2-0.8-0.2-1.2c0-0.4,0.1-0.9,0.2-1.3c0.2-0.4,0.4-0.7,0.7-1
		c0.3-0.3,0.6-0.5,1-0.7c0.4-0.2,0.8-0.3,1.3-0.3c0.5,0,0.9,0.1,1.3,0.3c0.4,0.2,0.7,0.4,1,0.7s0.5,0.6,0.7,1
		c0.2,0.4,0.2,0.8,0.2,1.2C191.2,67.7,191.1,68.1,191,68.5z M190.1,66.4c-0.1-0.3-0.3-0.6-0.5-0.8c-0.2-0.2-0.5-0.4-0.7-0.5
		c-0.3-0.1-0.6-0.2-0.9-0.2c-0.3,0-0.6,0.1-0.9,0.2c-0.3,0.1-0.5,0.3-0.7,0.5c-0.2,0.2-0.3,0.5-0.5,0.8c-0.1,0.3-0.2,0.6-0.2,0.9
		s0.1,0.7,0.2,0.9c0.1,0.3,0.3,0.6,0.5,0.8s0.4,0.4,0.7,0.5c0.3,0.1,0.6,0.2,0.9,0.2c0.3,0,0.6-0.1,0.9-0.2c0.3-0.1,0.5-0.3,0.7-0.5
		c0.2-0.2,0.4-0.5,0.5-0.8s0.2-0.6,0.2-0.9C190.3,67,190.2,66.6,190.1,66.4z"/>
	<path class="st3" d="M197.4,70.4h-0.9v-8.8h0.9v3.6c0.2-0.3,0.5-0.6,0.8-0.9c0.3-0.2,0.8-0.4,1.3-0.4c0.4,0,0.7,0.1,1,0.2
		s0.5,0.3,0.7,0.5c0.2,0.2,0.4,0.5,0.5,0.8c0.1,0.3,0.2,0.6,0.2,1v3.9H201v-3.6c0-0.6-0.1-1-0.4-1.4s-0.7-0.5-1.3-0.5
		c-0.3,0-0.5,0-0.7,0.1c-0.2,0.1-0.4,0.2-0.6,0.4s-0.3,0.4-0.4,0.6c-0.1,0.2-0.1,0.5-0.1,0.8V70.4z"/>
	<path class="st3" d="M204.7,68.5c0.1,0.3,0.3,0.5,0.5,0.7c0.2,0.2,0.4,0.3,0.7,0.4s0.5,0.1,0.8,0.1c0.4,0,0.8-0.1,1.1-0.2
		c0.3-0.2,0.6-0.4,0.8-0.6l0.6,0.5c-0.3,0.4-0.7,0.6-1.1,0.8c-0.4,0.2-0.9,0.3-1.5,0.3c-0.4,0-0.8-0.1-1.2-0.2
		c-0.4-0.2-0.7-0.4-1-0.7c-0.3-0.3-0.5-0.6-0.7-1c-0.2-0.4-0.2-0.8-0.2-1.3c0-0.4,0.1-0.9,0.2-1.3c0.1-0.4,0.4-0.7,0.6-1
		c0.3-0.3,0.6-0.5,0.9-0.7s0.8-0.3,1.2-0.3c0.5,0,0.9,0.1,1.2,0.3c0.4,0.2,0.7,0.4,0.9,0.7s0.4,0.6,0.6,1s0.2,0.8,0.2,1.3
		c0,0,0,0.1,0,0.1s0,0.1,0,0.2h-4.9C204.5,68,204.6,68.3,204.7,68.5z M208.4,66.9c0-0.3-0.1-0.5-0.2-0.8c-0.1-0.3-0.2-0.5-0.4-0.7
		c-0.2-0.2-0.4-0.3-0.6-0.5c-0.2-0.1-0.5-0.2-0.8-0.2c-0.3,0-0.5,0.1-0.8,0.2c-0.2,0.1-0.4,0.3-0.6,0.4c-0.2,0.2-0.3,0.4-0.4,0.7
		s-0.2,0.5-0.2,0.8H208.4z"/>
	<path class="st3" d="M211.1,70.4v-8.8h0.9v8.8H211.1z"/>
	<path class="st3" d="M220.2,68.6c-0.2,0.4-0.4,0.7-0.7,1c-0.3,0.3-0.6,0.5-0.9,0.6c-0.4,0.1-0.7,0.2-1.1,0.2c-0.3,0-0.6,0-0.8-0.1
		c-0.2-0.1-0.5-0.2-0.6-0.3c-0.2-0.1-0.4-0.3-0.5-0.4c-0.2-0.2-0.3-0.3-0.4-0.5v3.1h-0.9v-8.1h0.9v1.2c0.1-0.2,0.3-0.4,0.4-0.5
		s0.3-0.3,0.5-0.4c0.2-0.1,0.4-0.2,0.6-0.3c0.2-0.1,0.5-0.1,0.8-0.1c0.4,0,0.7,0.1,1.1,0.2c0.4,0.1,0.7,0.4,1,0.6s0.5,0.6,0.7,1
		c0.2,0.4,0.3,0.9,0.3,1.4C220.4,67.8,220.3,68.2,220.2,68.6z M219.3,66.3c-0.1-0.3-0.3-0.5-0.5-0.8c-0.2-0.2-0.4-0.4-0.7-0.5
		s-0.5-0.2-0.8-0.2c-0.3,0-0.6,0.1-0.8,0.2c-0.3,0.1-0.5,0.3-0.7,0.5c-0.2,0.2-0.4,0.5-0.5,0.8c-0.1,0.3-0.2,0.6-0.2,1
		s0.1,0.7,0.2,1c0.1,0.3,0.3,0.6,0.5,0.8c0.2,0.2,0.5,0.4,0.7,0.5c0.3,0.1,0.5,0.2,0.8,0.2c0.3,0,0.6-0.1,0.8-0.2
		c0.3-0.1,0.5-0.3,0.7-0.5s0.4-0.5,0.5-0.8c0.1-0.3,0.2-0.6,0.2-1C219.5,66.9,219.4,66.6,219.3,66.3z"/>
</g>
</svg>
