<?xml version="1.0" encoding="utf-8"?>
<!-- Generator: Adobe Illustrator 25.4.1, SVG Export Plug-In . SVG Version: 6.00 Build 0)  -->
<svg version="1.1" id="Layer_1" xmlns="http://www.w3.org/2000/svg" xmlns:xlink="http://www.w3.org/1999/xlink" x="0px" y="0px"
	 viewBox="0 0 390 187" style="enable-background:new 0 0 390 187;" xml:space="preserve">
<style type="text/css">
	.st0{fill:#FFFFFF;fill-opacity:0.8;}
	.st1{fill:none;}
	.st2{fill:#D8587E;}
	.st3{fill:#545567;}
</style>
<g>
	<path class="st0" d="M20,0h350c11,0,20,9,20,20v147c0,11-9,20-20,20H20c-11,0-20-9-20-20V20C0,9,9,0,20,0z"/>
</g>
<circle class="st1" cx="54" cy="54" r="28"/>
<g>
	<path class="st2" d="M143.4,88.2c-1.4,0.7-2.8,1.6-4.3,2.1c-14.5,4.8-29,9.6-43.4,14.4c-4.6,1.5-9.2,1.5-13.8,0
		c-14.4-4.8-28.7-9.5-43.1-14.3c-0.5-0.2-1-0.3-1.3-0.5c-1-0.8-1.9-1.6-2.8-2.4c1-0.8,1.8-1.9,2.9-2.3C47.7,82,57.8,79,67.9,76
		c5.1-1.5,10.1-3.4,15.2-4.4c3.6-0.7,7.8-1,11.3,0c15.1,4.1,30,8.8,44.9,13.3c1.4,0.4,2.7,1.3,4,2C143.4,87.3,143.4,87.8,143.4,88.2
		z"/>
	<path class="st2" d="M121.8,100.6c0,7.4,0.3,14.4-0.2,21.3c-0.1,1.8-2.4,3.8-4.2,5c-6.8,4.4-14.6,6.1-22.5,6.9
		c-10.4,1-20.7-0.2-30.4-4.4c-2.4-1-4.7-2.5-6.7-4.1c-1.1-0.9-2-2.6-2.1-3.9c-0.2-6.7-0.1-13.5-0.1-20.6c7.9,2.6,15.6,4.8,23,7.7
		c6.9,2.7,13.4,2.7,20.3,0C106.3,105.4,113.9,103.2,121.8,100.6z"/>
	<path class="st2" d="M136.9,96c0,2.2,0,4.1,0,6.1c-0.1,4.9-0.1,9.7,2.4,14.3c1,1.7,1.1,4.7,0.2,6.5c-0.9,1.9-3.3,3.1-5,4.6
		c-1.7-2.2-3.6-4.2-5-6.6c-0.5-0.9-0.1-2.7,0.6-3.8c3.2-5.3,2.6-11.1,2.6-16.8C132.7,96.8,132.7,96.8,136.9,96z"/>
</g>
<g>
	<path class="st3" d="M180.4,87.6v5.6h-2.3V79.9h2.3v5.6h6.4v-5.6h2.3v13.4h-2.3v-5.6H180.4z"/>
	<path class="st3" d="M192.4,81.6v-2.2h2.5v2.2H192.4z M192.5,93.2V83.1h2.3v10.1H192.5z"/>
	<path class="st3" d="M206.3,95.1c-0.9,0.8-2.3,1.2-4,1.2c-1.7,0-3.2-0.4-4.5-1.2l0.9-1.7c0.5,0.3,1.1,0.6,1.7,0.8
		c0.6,0.2,1.2,0.3,1.9,0.3c1,0,1.8-0.3,2.4-0.8c0.5-0.5,0.8-1.3,0.8-2.3v-0.8c-0.4,0.6-0.9,1-1.5,1.4c-0.6,0.3-1.3,0.5-2.1,0.5
		c-0.6,0-1.2-0.1-1.7-0.3c-0.5-0.2-1-0.5-1.5-0.9c-0.4-0.4-0.8-0.9-1-1.5c-0.3-0.6-0.4-1.3-0.4-2s0.1-1.4,0.4-2s0.6-1.1,1-1.5
		c0.4-0.4,0.9-0.7,1.5-0.9c0.6-0.2,1.1-0.3,1.7-0.3c0.9,0,1.6,0.2,2.1,0.5s1,0.7,1.4,1.2v-1.5h2.3v8C207.8,93,207.3,94.3,206.3,95.1
		z M205.2,86.5c-0.2-0.3-0.4-0.6-0.6-0.9c-0.3-0.2-0.6-0.4-0.9-0.6s-0.7-0.2-1.1-0.2c-0.4,0-0.8,0.1-1.1,0.2s-0.6,0.3-0.9,0.6
		c-0.3,0.2-0.5,0.5-0.6,0.9s-0.2,0.7-0.2,1.1c0,0.4,0.1,0.8,0.2,1.1s0.4,0.6,0.6,0.9c0.3,0.2,0.6,0.4,0.9,0.6
		c0.4,0.1,0.7,0.2,1.1,0.2s0.8-0.1,1.1-0.2c0.4-0.1,0.7-0.3,0.9-0.6c0.3-0.2,0.5-0.5,0.6-0.9s0.2-0.7,0.2-1.1
		C205.5,87.3,205.4,86.9,205.2,86.5z"/>
	<path class="st3" d="M213,93.2h-2.3v-14h2.3v5.4c0.2-0.2,0.3-0.5,0.5-0.7c0.2-0.2,0.4-0.4,0.7-0.6c0.3-0.2,0.5-0.3,0.9-0.4
		c0.3-0.1,0.7-0.1,1.1-0.1c1.1,0,2,0.4,2.7,1.1s0.9,1.6,0.9,2.8v6.4h-2.3v-5.7c0-0.8-0.2-1.4-0.6-1.8c-0.4-0.4-0.9-0.6-1.6-0.6
		c-0.7,0-1.2,0.2-1.6,0.7c-0.4,0.4-0.6,1.1-0.6,1.8V93.2z"/>
	<path class="st3" d="M242.1,92l-1.5,1.7l-1.6-1.4c-0.6,0.4-1.2,0.7-1.9,0.9c-0.7,0.2-1.4,0.3-2.2,0.3c-1,0-2-0.2-2.8-0.5
		c-0.9-0.4-1.6-0.9-2.2-1.5c-0.6-0.6-1.1-1.4-1.4-2.2c-0.3-0.8-0.5-1.7-0.5-2.7s0.2-1.8,0.5-2.7c0.3-0.8,0.8-1.6,1.5-2.2
		c0.6-0.6,1.4-1.1,2.2-1.5c0.9-0.4,1.8-0.6,2.8-0.6s2,0.2,2.8,0.5c0.9,0.4,1.6,0.9,2.2,1.5c0.6,0.6,1.1,1.4,1.4,2.2
		c0.3,0.8,0.5,1.7,0.5,2.7c0,0.8-0.1,1.5-0.4,2.2c-0.2,0.7-0.6,1.3-1,1.9L242.1,92z M234.9,88.7l1.5-1.7l2.3,2.1
		c0.2-0.4,0.4-0.7,0.5-1.2c0.1-0.4,0.2-0.9,0.2-1.3c0-0.6-0.1-1.3-0.3-1.8c-0.2-0.6-0.5-1.1-0.9-1.5c-0.4-0.4-0.9-0.8-1.4-1
		c-0.6-0.3-1.2-0.4-1.8-0.4c-0.7,0-1.3,0.1-1.8,0.4s-1,0.6-1.4,1c-0.4,0.4-0.7,0.9-0.9,1.5c-0.2,0.6-0.3,1.2-0.3,1.8
		c0,0.6,0.1,1.3,0.3,1.8c0.2,0.6,0.5,1.1,0.9,1.5c0.4,0.4,0.9,0.8,1.4,1c0.6,0.3,1.2,0.4,1.8,0.4c0.4,0,0.9-0.1,1.2-0.2
		c0.4-0.1,0.7-0.3,1.1-0.5L234.9,88.7z"/>
	<path class="st3" d="M251.1,83.1h2.3v10.1h-2.3v-1.6c-0.3,0.5-0.7,0.9-1.2,1.3c-0.5,0.4-1.1,0.5-1.9,0.5c-1.1,0-2-0.4-2.7-1.1
		c-0.6-0.7-0.9-1.6-0.9-2.8v-6.4h2.3v5.7c0,0.8,0.2,1.4,0.6,1.8c0.4,0.4,0.9,0.6,1.6,0.6c0.7,0,1.2-0.2,1.6-0.7
		c0.4-0.4,0.6-1.1,0.6-1.8V83.1z"/>
	<path class="st3" d="M262.5,93.2V92c-0.3,0.4-0.8,0.8-1.3,1c-0.5,0.3-1.2,0.4-2,0.4c-0.5,0-0.9-0.1-1.4-0.2
		c-0.4-0.1-0.8-0.3-1.1-0.6c-0.3-0.3-0.6-0.6-0.8-1c-0.2-0.4-0.3-0.8-0.3-1.3v0c0-0.5,0.1-1,0.3-1.4c0.2-0.4,0.5-0.7,0.9-1
		s0.8-0.5,1.3-0.6s1-0.2,1.6-0.2c0.6,0,1.1,0,1.6,0.1s0.8,0.2,1.2,0.3v-0.2c0-0.7-0.2-1.2-0.6-1.6c-0.4-0.4-1-0.6-1.8-0.6
		c-0.6,0-1.1,0.1-1.5,0.2s-0.9,0.3-1.4,0.5l-0.6-1.9c0.6-0.3,1.1-0.5,1.7-0.6s1.3-0.2,2.1-0.2c1.5,0,2.6,0.4,3.3,1.1
		s1.1,1.8,1.1,3.1v6H262.5z M262.6,89c-0.3-0.1-0.6-0.2-1-0.3c-0.4-0.1-0.8-0.1-1.3-0.1c-0.7,0-1.3,0.1-1.7,0.4
		c-0.4,0.3-0.6,0.7-0.6,1.2v0c0,0.5,0.2,0.9,0.6,1.1c0.4,0.3,0.8,0.4,1.4,0.4c0.4,0,0.7-0.1,1.1-0.2s0.6-0.2,0.9-0.4
		c0.2-0.2,0.4-0.4,0.6-0.7c0.1-0.3,0.2-0.6,0.2-0.9V89z"/>
	<path class="st3" d="M267.7,93.2v-14h2.3v14H267.7z"/>
	<path class="st3" d="M273.1,81.6v-2.2h2.5v2.2H273.1z M273.2,93.2V83.1h2.3v10.1H273.2z"/>
	<path class="st3" d="M281.3,90.1c0,0.4,0.1,0.8,0.3,1c0.2,0.2,0.5,0.3,0.9,0.3c0.5,0,1-0.1,1.4-0.3v1.9c-0.3,0.2-0.6,0.3-0.9,0.4
		c-0.3,0.1-0.7,0.1-1.1,0.1c-0.4,0-0.8-0.1-1.2-0.2c-0.4-0.1-0.7-0.3-0.9-0.5c-0.3-0.2-0.5-0.5-0.6-0.9S279,91,279,90.4v-5.3h-1.3
		v-2h1.3v-2.8h2.3v2.8h2.7v2h-2.7V90.1z"/>
	<path class="st3" d="M291.7,93.5c-0.2,0.5-0.4,1-0.6,1.3c-0.2,0.4-0.5,0.6-0.7,0.9c-0.3,0.2-0.6,0.4-0.9,0.5
		c-0.3,0.1-0.7,0.2-1.1,0.2c-0.5,0-0.9-0.1-1.3-0.2c-0.4-0.1-0.7-0.3-1.1-0.5l0.8-1.7c0.2,0.1,0.4,0.2,0.7,0.3
		c0.2,0.1,0.5,0.1,0.7,0.1c0.3,0,0.6-0.1,0.8-0.2c0.2-0.2,0.4-0.5,0.6-0.9l-4.2-10.1h2.5l2.9,7.5l2.6-7.5h2.4L291.7,93.5z"/>
</g>
<g>
	<path class="st3" d="M176.4,124.3v-20h15.1v3.9h-10.7v4.1h9.4v3.9h-9.4v4.2h10.9v3.9H176.4z"/>
	<path class="st3" d="M205.8,124.3v-2.2c-1.1,1.4-2.5,2.5-4.8,2.5c-3.6,0-7-2.8-7-7.9v-0.1c0-5.1,3.3-7.9,7-7.9
		c2.3,0,3.7,1.1,4.8,2.3v-7.5h4.3v20.9H205.8z M205.9,116.6c0-2.5-1.7-4.2-3.7-4.2s-3.7,1.7-3.7,4.2v0.1c0,2.5,1.7,4.2,3.7,4.2
		S205.9,119.2,205.9,116.6L205.9,116.6z"/>
	<path class="st3" d="M223.6,124.3v-2.2c-1,1.3-2.3,2.5-4.5,2.5c-3.3,0-5.2-2.2-5.2-5.7V109h4.3v8.5c0,2.1,1,3.1,2.6,3.1
		c1.7,0,2.7-1.1,2.7-3.1V109h4.3v15.3H223.6z"/>
	<path class="st3" d="M239.1,124.7c-4.6,0-8-3.5-8-7.9v-0.1c0-4.4,3.3-8,8-8c2.9,0,4.7,1,6.1,2.6l-2.7,2.9c-1-1-1.9-1.7-3.5-1.7
		c-2.2,0-3.7,1.9-3.7,4.2v0.1c0,2.3,1.5,4.2,3.9,4.2c1.5,0,2.5-0.6,3.5-1.6l2.5,2.6C243.9,123.5,242.2,124.7,239.1,124.7z"/>
	<path class="st3" d="M257.2,124.3v-1.7c-1.1,1.2-2.5,1.9-4.6,1.9c-2.9,0-5.3-1.7-5.3-4.7v-0.1c0-3.3,2.5-4.9,6.2-4.9
		c1.5,0,2.7,0.3,3.7,0.6v-0.3c0-1.8-1.1-2.8-3.3-2.8c-1.7,0-2.8,0.3-4.2,0.8l-1.1-3.3c1.7-0.7,3.3-1.2,5.9-1.2
		c4.7,0,6.8,2.5,6.8,6.6v8.9H257.2z M257.2,118.1c-0.7-0.3-1.7-0.6-2.8-0.6c-1.9,0-3,0.7-3,2.1v0.1c0,1.2,1,1.9,2.4,1.9
		c2,0,3.4-1.1,3.4-2.7V118.1z"/>
	<path class="st3" d="M270.1,124.6c-2.7,0-4.5-1.1-4.5-4.6v-7.3h-1.8V109h1.8v-3.9h4.3v3.9h3.6v3.7H270v6.5c0,1,0.4,1.5,1.4,1.5
		c0.8,0,1.5-0.2,2.1-0.5v3.5C272.7,124.2,271.6,124.6,270.1,124.6z"/>
	<path class="st3" d="M276.9,107.3v-3.9h4.6v3.9H276.9z M277,124.3V109h4.3v15.3H277z"/>
	<path class="st3" d="M293,124.7c-4.7,0-8.3-3.5-8.3-7.9v-0.1c0-4.4,3.5-8,8.3-8c4.7,0,8.3,3.5,8.3,7.9v0.1
		C301.3,121.1,297.7,124.7,293,124.7z M297,116.7c0-2.3-1.6-4.2-4-4.2c-2.5,0-4,1.9-4,4.2v0.1c0,2.3,1.6,4.2,4,4.2
		C295.5,120.9,297,119,297,116.7L297,116.7z"/>
	<path class="st3" d="M314.1,124.3v-8.5c0-2.1-1-3.1-2.6-3.1c-1.7,0-2.7,1.1-2.7,3.1v8.5h-4.3V109h4.3v2.2c1-1.3,2.3-2.5,4.5-2.5
		c3.3,0,5.2,2.2,5.2,5.7v9.9H314.1z"/>
</g>
</svg>
